# xmcd
#
# Track frame offsets: 
#        150
#        27747
#        46481
#        64804
#        85602
#        102910
#        128409
#        156007
#        175247
#        188160
#        217135
#        239307
#        263389
#        281425
#        300728
#        313750
#        326425
#
# Disc length: 4559 seconds
#
# Revision: 1
# Processed by: cddbd v1.5.2PL0 Copyright (c) Steve Scherf et al.
# Submitted via: ExactAudioCopy v0.99pb4
#
DISCID=e711cd11
DTITLE=Snooks Eaglin - Soul's Edge [Bonus Tracks]
DYEAR=1995
DGENRE=Blues
TTITLE0=Josephine
TTITLE1=Show me the way back home
TTITLE2=Ling ting tong
TTITLE3=Aw' some funk
TTITLE4=I'm not ashamed
TTITLE5=Nine pound steel
TTITLE6=Answer now
TTITLE7=Skinny minnie
TTITLE8=Thrill on the hill
TTITLE9=You and me
TTITLE10=I went to the mardi
TTITLE11=Talk to me
TTITLE12=Mama and papa
TTITLE13=God will take care
TTITLE14=Brown alert
TTITLE15=Drive her home
TTITLE16=Tipitina
EXTD=
EXTT0=
EXTT1=
EXTT2=
EXTT3=
EXTT4=
EXTT5=
EXTT6=
EXTT7=
EXTT8=
EXTT9=
EXTT10=
EXTT11=
EXTT12=
EXTT13=
EXTT14=Bonus tracks
EXTT15=Bonus tracks
EXTT16=Bonus tracks
PLAYORDER=
